<?xml version="1.0" standalone="no"?>
<!DOCTYPE svg PUBLIC "-//W3C//DTD SVG 20010904//EN"
 "http://www.w3.org/TR/2001/REC-SVG-20010904/DTD/svg10.dtd">
<svg version="1.0" xmlns="http://www.w3.org/2000/svg"
 width="310.000000pt" height="310.000000pt" viewBox="0 0 310.000000 310.000000"
 preserveAspectRatio="xMidYMid meet">
<metadata>
Created by potrace 1.11, written by Peter Selinger 2001-2013
</metadata>
<g transform="translate(0.000000,310.000000) scale(0.100000,-0.100000)"
fill="#000000" stroke="none">
<path d="M2610 2888 c-5 -13 -44 -142 -85 -288 -42 -146 -85 -293 -95 -328
-21 -68 -19 -87 12 -95 26 -7 45 0 51 21 2 9 46 158 96 331 50 173 91 326 91
341 0 43 -53 56 -70 18z"/>
<path d="M2187 2682 c-70 -70 -127 -134 -127 -143 0 -8 58 -73 130 -143 126
-125 130 -128 152 -114 42 28 34 45 -73 154 l-102 104 101 104 c56 57 102 110
102 118 0 16 -31 48 -46 48 -5 0 -67 -57 -137 -128z"/>
<path d="M2743 2798 c-27 -35 -23 -41 83 -148 l107 -109 -101 -104 c-56 -57
-102 -110 -102 -119 0 -26 36 -51 57 -40 30 17 253 248 253 263 0 19 -252 269
-272 269 -8 0 -20 -6 -25 -12z"/>
<path d="M1325 2688 c-2 -7 -13 -44 -23 -83 -11 -38 -54 -189 -97 -335 -131
-455 -314 -1087 -476 -1653 -33 -114 -57 -212 -54 -217 4 -6 84 -10 201 -10
192 0 195 0 204 23 5 12 30 99 55 192 26 94 52 188 59 210 l13 40 340 3 340 2
15 -57 c9 -32 35 -132 58 -223 23 -91 47 -171 52 -178 15 -18 407 -17 413 1 3
6 -28 129 -69 272 -41 143 -185 647 -320 1120 -135 473 -250 870 -256 883 -10
22 -11 22 -230 22 -168 0 -222 -3 -225 -12z m247 -620 c8 -35 39 -153 67 -263
29 -110 70 -268 92 -352 21 -83 39 -159 39 -167 0 -14 -27 -16 -225 -16 -257
0 -236 -10 -206 103 11 39 40 151 66 247 25 96 61 229 79 295 18 66 39 141 46
168 7 26 16 47 19 47 4 0 14 -28 23 -62z"/>
</g>
</svg>
